<?xml version="1.0" encoding="UTF-8"?>
<svg version="1.1" xmlns="http://www.w3.org/2000/svg" width="500" height="500">
<path d="M0 0 C0.81339844 0.72960937 1.62679687 1.45921875 2.46484375 2.2109375 C3.37105469 3.02304687 4.27726563 3.83515625 5.2109375 4.671875 C20.86519273 19.47936747 32.5551483 41.3782466 33.46484375 63.2109375 C33.5421875 64.9125 33.5421875 64.9125 33.62109375 66.6484375 C34.09203596 82.27355744 31.4992541 97.14211681 24.46484375 111.2109375 C25.57859375 111.4790625 26.69234375 111.7471875 27.83984375 112.0234375 C52.80395439 118.31748945 74.82863696 131.82491177 88.5637207 154.11962891 C101.03715586 175.21678223 105.62361927 201.25046475 99.96484375 225.3359375 C96.51057882 238.48567772 90.10673986 250.75835839 81.46484375 261.2109375 C80.77777344 262.06042969 80.09070313 262.90992188 79.3828125 263.78515625 C65.36969531 280.2726617 44.83284367 291.10226221 23.46484375 294.2109375 C8.79519585 295.10452637 -5.58392629 295.15875743 -19.53515625 290.2109375 C-20.581875 289.84871094 -21.62859375 289.48648437 -22.70703125 289.11328125 C-34.91032104 284.45010704 -45.23838548 277.30669701 -54.53515625 268.2109375 C-55.17839844 267.58316406 -55.82164062 266.95539063 -56.484375 266.30859375 C-57.84881652 264.95687429 -59.19481149 263.58655449 -60.53515625 262.2109375 C-63.88040574 263.32602066 -64.37737318 264.02385692 -66.47265625 266.7109375 C-79.42244548 281.85056583 -100.03882382 291.37455754 -119.53515625 294.2109375 C-134.20480415 295.10452637 -148.58392629 295.15875743 -162.53515625 290.2109375 C-163.581875 289.84871094 -164.62859375 289.48648437 -165.70703125 289.11328125 C-177.93592286 284.44032397 -188.1912717 277.28094957 -197.53515625 268.2109375 C-198.2209375 267.59863281 -198.90671875 266.98632812 -199.61328125 266.35546875 C-215.32556028 251.84944736 -223.9082978 229.52096262 -224.8828125 208.44140625 C-225.14988178 197.70943794 -224.73979094 187.51675135 -221.53515625 177.2109375 C-221.34179688 176.58171387 -221.1484375 175.95249023 -220.94921875 175.30419922 C-213.75604281 152.53135902 -197.69687601 132.49276294 -176.48828125 121.17382812 C-165.36352234 115.68932198 -153.90851017 112.19999842 -141.53515625 111.2109375 C-141.86128906 110.48390625 -142.18742187 109.756875 -142.5234375 109.0078125 C-152.17488349 86.80094562 -153.63075259 62.34935517 -145.28515625 39.4609375 C-140.77103509 28.66747168 -135.36369807 18.93851681 -127.53515625 10.2109375 C-126.72304687 9.30472656 -125.9109375 8.39851563 -125.07421875 7.46484375 C-111.32572433 -7.0698549 -93.22751459 -16.36549533 -73.53515625 -19.7890625 C-72.23578125 -20.0159375 -70.93640625 -20.2428125 -69.59765625 -20.4765625 C-44.83452831 -22.90128544 -19.1820666 -16.22858795 0 0 Z M-118.53515625 11.2109375 C-119.15003906 11.75105469 -119.76492187 12.29117188 -120.3984375 12.84765625 C-135.25537393 26.40674536 -142.66412598 47.55406156 -143.81640625 67.21484375 C-144.17708537 82.58879141 -140.98103811 96.29632426 -134.53515625 110.2109375 C-132.73701079 112.00908296 -130.2235602 111.58779587 -127.81005859 111.80517578 C-101.13320053 114.23133154 -80.88045582 124.90756619 -62.53515625 144.2109375 C-58.87995898 142.69758659 -56.81535676 140.54378413 -54.16015625 137.6484375 C-48.28041064 131.64728121 -41.763689 127.43387824 -34.53515625 123.2109375 C-33.70371094 122.71722656 -32.87226563 122.22351563 -32.015625 121.71484375 C-19.88868419 115.08324579 -5.8202143 112.31292198 7.83984375 111.6484375 C8.67128906 111.60525391 9.50273437 111.56207031 10.359375 111.51757812 C12.39437603 111.41231945 14.42959078 111.31120678 16.46484375 111.2109375 C27.12081067 92.65033937 29.27695216 69.89471326 24.05126953 49.27148438 C18.12955493 28.46412749 4.91668604 9.65665084 -13.92578125 -1.37109375 C-14.786875 -1.83902344 -15.64796875 -2.30695312 -16.53515625 -2.7890625 C-17.355 -3.24667969 -18.17484375 -3.70429687 -19.01953125 -4.17578125 C-52.7020213 -22.0360825 -91.6621924 -14.45944966 -118.53515625 11.2109375 Z M-193.53515625 143.2109375 C-194.6953125 144.35175781 -194.6953125 144.35175781 -195.87890625 145.515625 C-212.50141956 162.87818172 -218.34172609 185.11774041 -217.83984375 208.6328125 C-216.89331402 231.55291256 -205.35362624 251.55530115 -189.00390625 267.15625 C-184.01061772 271.70350882 -178.50569549 275.05669036 -172.53515625 278.2109375 C-171.64441406 278.69046875 -170.75367188 279.17 -169.8359375 279.6640625 C-150.98215351 289.0204994 -128.07568178 290.40722348 -107.96875 284.40234375 C-106.83566406 284.00917969 -105.70257813 283.61601562 -104.53515625 283.2109375 C-103.47425781 282.84871094 -102.41335937 282.48648438 -101.3203125 282.11328125 C-87.25302051 276.77241749 -73.57785868 267.05692055 -65.53515625 254.2109375 C-66.05464844 253.37433594 -66.57414063 252.53773438 -67.109375 251.67578125 C-76.28687687 236.51285629 -80.95197955 220.72411508 -80.84765625 202.8984375 C-80.84028442 201.39240967 -80.84028442 201.39240967 -80.83276367 199.85595703 C-80.64571098 187.94405816 -78.08611725 177.79438298 -73.5234375 166.7578125 C-72.41457087 164.35549641 -72.41457087 164.35549641 -72.53515625 162.2109375 C-73.0677002 162.0658374 -73.60024414 161.9207373 -74.14892578 161.77124023 C-99.52416627 154.76260646 -121.42312349 143.14545621 -135.62109375 120.1953125 C-137.40901286 117.92854484 -137.40901286 117.92854484 -140.359375 117.84375 C-161.13474418 120.24582221 -178.61907585 128.53700126 -193.53515625 143.2109375 Z M-128.53515625 118.2109375 C-121.26628784 134.23972425 -104.34654061 144.93460528 -88.53515625 151.2109375 C-78.70298546 154.84097707 -78.70298546 154.84097707 -68.53515625 155.2109375 C-66.67271245 152.80235036 -66.67271245 152.80235036 -65.53515625 150.2109375 C-74.14884605 141.01342096 -82.25134415 133.05641748 -93.53515625 127.2109375 C-94.85 126.49550781 -94.85 126.49550781 -96.19140625 125.765625 C-101.69779233 122.99584646 -107.32072182 121.34007805 -113.28515625 119.8984375 C-113.99446289 119.72666992 -114.70376953 119.55490234 -115.43457031 119.37792969 C-119.89989467 118.3761075 -123.96073486 118.04927601 -128.53515625 118.2109375 Z M-50.53515625 143.2109375 C-51.19257813 143.78199219 -51.85 144.35304687 -52.52734375 144.94140625 C-54.42438398 146.57022648 -54.42438398 146.57022648 -56.53515625 149.2109375 C-56.46890353 152.12605727 -55.82038986 153.64047027 -54.53515625 156.2109375 C-34.41348219 154.43938407 -18.11381935 148.36318936 -2.53515625 135.2109375 C-1.50390625 134.4271875 -0.47265625 133.6434375 0.58984375 132.8359375 C4.72139638 129.06365032 8.26418802 124.80071032 11.46484375 120.2109375 C11.46484375 119.5509375 11.46484375 118.8909375 11.46484375 118.2109375 C-12.70469747 117.01574041 -33.31451266 126.80032418 -50.53515625 143.2109375 Z M20.46484375 118.2109375 C19.44265444 119.53956931 18.42555854 120.8724 17.43310547 122.22338867 C0.28262278 145.49063711 -21.02952717 157.88960543 -49.53515625 162.2109375 C-48.72947376 166.82530087 -47.38794255 171.23514739 -46.03515625 175.7109375 C-45.58512907 177.19988457 -45.1371573 178.68945468 -44.69140625 180.1796875 C-44.49353516 180.83388672 -44.29566406 181.48808594 -44.09179688 182.16210938 C-37.77043097 205.42917197 -43.41865134 229.57181692 -54.53515625 250.2109375 C-55.5166891 251.88854623 -56.50847567 253.56057246 -57.53515625 255.2109375 C-48.92341376 264.40637474 -40.8204783 272.37219945 -29.53515625 278.2109375 C-28.64699219 278.68789063 -27.75882813 279.16484375 -26.84375 279.65625 C-8.00403561 289.03399159 14.93297291 290.40463878 35.03125 284.40234375 C36.16433594 284.00917969 37.29742187 283.61601562 38.46484375 283.2109375 C39.52574219 282.84871094 40.58664062 282.48648438 41.6796875 282.11328125 C62.63880439 274.15583018 78.42653174 257.72189051 87.9609375 237.74609375 C96.26760268 218.22003663 98.03173964 194.29068916 90.46484375 174.2109375 C88.12833279 168.69323697 85.40034969 163.4301212 82.46484375 158.2109375 C82.01625 157.38207031 81.56765625 156.55320313 81.10546875 155.69921875 C73.77651486 143.46167537 61.9427089 133.74393441 49.46484375 127.2109375 C48.14806641 126.49357422 48.14806641 126.49357422 46.8046875 125.76171875 C39.41860989 122.05196936 28.87530776 118.2109375 20.46484375 118.2109375 Z M-65.53515625 163.2109375 C-74.89666846 184.8423929 -78.93499123 208.44211463 -70.53515625 231.2109375 C-67.00649985 240.98937421 -67.00649985 240.98937421 -60.53515625 248.2109375 C-48.79383652 226.21245362 -44.13513546 202.06405489 -51.3125 177.625 C-53.08881157 172.66494789 -55.11573022 167.89113867 -57.53515625 163.2109375 C-60.17515625 163.2109375 -62.81515625 163.2109375 -65.53515625 163.2109375 Z " fill="#CF7013" transform="translate(308.53515625,57.7890625)"/>
<path d="M0 0 C19.05231875 15.68806172 31.08243724 35.15733335 35.375 59.75 C37.0980498 86.77692732 32.98380649 110.45172929 15.375 131.75 C14.68792969 132.59949219 14.00085938 133.44898438 13.29296875 134.32421875 C-0.72014844 150.8117242 -21.25700008 161.64132471 -42.625 164.75 C-57.2946479 165.64358887 -71.67377004 165.69781993 -85.625 160.75 C-86.67171875 160.38777344 -87.7184375 160.02554688 -88.796875 159.65234375 C-101.01044338 154.98524184 -111.3096767 147.83572026 -120.625 138.75 C-121.2953125 138.11835938 -121.965625 137.48671875 -122.65625 136.8359375 C-126.2240613 133.4041868 -129.00296779 129.97908422 -131.625 125.75 C-132.07488281 125.12867188 -132.52476562 124.50734375 -132.98828125 123.8671875 C-146.59648986 104.80866278 -150.37344379 80.51865615 -147.1171875 57.6328125 C-144.42768883 43.75252625 -138.83720325 27.80042577 -128.625 17.75 C-127.90763672 16.55117187 -127.90763672 16.55117187 -127.17578125 15.328125 C-121.06428528 5.16795538 -110.63809908 -1.44428293 -100.625 -7.25 C-99.37976563 -7.98863281 -99.37976563 -7.98863281 -98.109375 -8.7421875 C-67.35079255 -25.58617313 -27.55999944 -20.32302117 0 0 Z M-116.625 13.75 C-117.28242188 14.32105469 -117.93984375 14.89210938 -118.6171875 15.48046875 C-120.51422773 17.10928898 -120.51422773 17.10928898 -122.625 19.75 C-122.55874728 22.66511977 -121.91023361 24.17953277 -120.625 26.75 C-100.50332594 24.97844657 -84.2036631 18.90225186 -68.625 5.75 C-67.59375 4.96625 -66.5625 4.1825 -65.5 3.375 C-61.36844737 -0.39728718 -57.82565573 -4.66022718 -54.625 -9.25 C-54.625 -9.91 -54.625 -10.57 -54.625 -11.25 C-78.79454122 -12.44519709 -99.40435641 -2.66061332 -116.625 13.75 Z M-45.625 -11.25 C-46.64718931 -9.92136819 -47.66428521 -8.5885375 -48.65673828 -7.23754883 C-65.80722097 16.02969961 -87.11937092 28.42866793 -115.625 32.75 C-114.81931751 37.36436337 -113.4777863 41.77420989 -112.125 46.25 C-111.67497282 47.73894707 -111.22700105 49.22851718 -110.78125 50.71875 C-110.58337891 51.37294922 -110.38550781 52.02714844 -110.18164062 52.70117188 C-103.86027472 75.96823447 -109.50849509 100.11087942 -120.625 120.75 C-121.60653285 122.42760873 -122.59831942 124.09963496 -123.625 125.75 C-115.01325751 134.94543724 -106.91032205 142.91126195 -95.625 148.75 C-94.73683594 149.22695313 -93.84867187 149.70390625 -92.93359375 150.1953125 C-74.09387936 159.57305409 -51.15687084 160.94370128 -31.05859375 154.94140625 C-29.92550781 154.54824219 -28.79242188 154.15507812 -27.625 153.75 C-26.56410156 153.38777344 -25.50320313 153.02554688 -24.41015625 152.65234375 C-3.45103936 144.69489268 12.33668799 128.26095301 21.87109375 108.28515625 C30.17775893 88.75909913 31.94189589 64.82975166 24.375 44.75 C22.03848904 39.23229947 19.31050594 33.9691837 16.375 28.75 C15.92640625 27.92113281 15.4778125 27.09226563 15.015625 26.23828125 C7.68667111 14.00073787 -4.14713485 4.28299691 -16.625 -2.25 C-17.94177734 -2.96736328 -17.94177734 -2.96736328 -19.28515625 -3.69921875 C-26.67123386 -7.40896814 -37.21453599 -11.25 -45.625 -11.25 Z M-131.625 33.75 C-140.98651221 55.3814554 -145.02483498 78.98117713 -136.625 101.75 C-133.0963436 111.52843671 -133.0963436 111.52843671 -126.625 118.75 C-114.88368027 96.75151612 -110.22497921 72.60311739 -117.40234375 48.1640625 C-119.17865532 43.20401039 -121.20557397 38.43020117 -123.625 33.75 C-126.265 33.75 -128.905 33.75 -131.625 33.75 Z " fill="#652CA3" transform="translate(374.625,187.25)"/>
<path d="M0 0 C0.81339844 0.72960937 1.62679687 1.45921875 2.46484375 2.2109375 C3.37105469 3.02304687 4.27726563 3.83515625 5.2109375 4.671875 C20.86519273 19.47936747 32.5551483 41.3782466 33.46484375 63.2109375 C33.51640625 64.3453125 33.56796875 65.4796875 33.62109375 66.6484375 C34.08394685 82.00517351 32.18236423 99.13465677 23.46484375 112.2109375 C19.83984375 112.3984375 19.83984375 112.3984375 16.46484375 112.2109375 C16.87734375 110.9734375 17.28984375 109.7359375 17.71484375 108.4609375 C17.98683594 107.63722656 18.25882813 106.81351562 18.5390625 105.96484375 C19.16889281 104.09129788 19.81812472 102.22418719 20.484375 100.36328125 C28.28354077 78.19261901 27.10252357 55.59001452 17.46875 34.25 C10.14269854 18.99190169 -1.72864238 6.34686536 -16.53515625 -1.7890625 C-17.35628906 -2.24796875 -18.17742187 -2.706875 -19.0234375 -3.1796875 C-39.1302062 -13.82633376 -61.89799959 -15.59898078 -83.62451172 -9.17089844 C-104.57049304 -2.46076126 -122.30021069 11.69662671 -132.97265625 31.08984375 C-143.31308667 51.74485351 -145.97025047 75.33393304 -138.80419922 97.46875 C-137.1859187 102.10644525 -135.40179941 106.66816839 -133.53515625 111.2109375 C-136.17515625 111.2109375 -138.81515625 111.2109375 -141.53515625 111.2109375 C-151.83325517 88.25391067 -153.98635442 63.32461961 -145.28515625 39.4609375 C-140.77103509 28.66747168 -135.36369807 18.93851681 -127.53515625 10.2109375 C-126.72304687 9.30472656 -125.9109375 8.39851563 -125.07421875 7.46484375 C-111.32572433 -7.0698549 -93.22751459 -16.36549533 -73.53515625 -19.7890625 C-72.23578125 -20.0159375 -70.93640625 -20.2428125 -69.59765625 -20.4765625 C-44.83452831 -22.90128544 -19.1820666 -16.22858795 0 0 Z " fill="#629138" transform="translate(308.53515625,57.7890625)"/>
<path d="M0 0 C2.27475497 0.01064628 4.24153323 0.20004904 6.44140625 0.76171875 C-4.95630343 22.09361896 -24.92169326 35.67839978 -47.55859375 42.76171875 C-52.96478756 44.3391634 -57.925104 44.82934768 -63.55859375 44.76171875 C-63.14867187 45.87289062 -62.73875 46.9840625 -62.31640625 48.12890625 C-61.77176137 49.63137488 -61.22751186 51.13398687 -60.68359375 52.63671875 C-60.41417969 53.36375 -60.14476562 54.09078125 -59.8671875 54.83984375 C-51.67621209 77.61475098 -53.49237615 103.30953391 -63.62109375 125.07421875 C-65.60377107 129.22451062 -67.61510924 133.19469234 -70.55859375 136.76171875 C-73.55859375 135.76171875 -73.55859375 135.76171875 -74.94140625 133.60546875 C-75.81954073 129.55938076 -74.45077203 127.82240592 -72.43359375 124.26171875 C-62.00294098 105.00828015 -60.18446402 81.28294276 -66.3359375 60.29296875 C-67.95585066 55.61436972 -69.68299937 50.99656325 -71.60546875 46.43359375 C-73.16520663 42.06121379 -72.36863867 38.21696582 -71.55859375 33.76171875 C-70.05859375 35.13671875 -70.05859375 35.13671875 -68.55859375 36.76171875 C-68.55859375 37.42171875 -68.55859375 38.08171875 -68.55859375 38.76171875 C-51.61753863 35.83788183 -36.72213771 32.03557303 -22.55859375 21.76171875 C-21.63304687 21.09398437 -20.7075 20.42625 -19.75390625 19.73828125 C-14.46899524 15.68310022 -10.6182632 11.66916841 -6.93359375 6.19921875 C-3.27121616 0.97387351 -3.27121616 0.97387351 0 0 Z " fill="#CF6F14" transform="translate(322.55859375,175.23828125)"/>
<path d="M0 0 C2.26105476 0.02488582 4.23445426 0.21885335 6.421875 0.77734375 C-4.3527925 20.94316113 -23.75827139 35.58464079 -45.46044922 42.20751953 C-51.73266307 43.89524689 -58.15422192 44.87100099 -64.578125 45.77734375 C-67.578125 41.02734375 -67.578125 41.02734375 -67.578125 38.77734375 C-66.70414063 38.60513306 -66.70414063 38.60513306 -65.8125 38.42944336 C-47.21402704 34.68818214 -32.32414208 29.96086181 -17.578125 17.77734375 C-16.52625 17.01421875 -15.474375 16.25109375 -14.390625 15.46484375 C-11.96267499 13.14480263 -10.28352358 10.91003932 -8.41845703 8.15063477 C-3.58351922 1.08048534 -3.58351922 1.08048534 0 0 Z " fill="#619137" transform="translate(322.578125,175.22265625)"/>
<path d="M0 0 C3.22803807 -0.57643537 4.90777149 -0.86771718 8 0 C11.16532883 2.98884467 13.5235015 6.43613135 16 10 C28.43383301 26.78567456 49.30931571 34.1805264 69 38 C68.25 40.9375 68.25 40.9375 67 44 C60.8921358 46.95213437 51.03556855 42.00173762 44.875 39.96875 C26.97549756 33.15915668 9.29225554 18.90771309 0 2 C0 1.34 0 0.68 0 0 Z " fill="#629138" transform="translate(171,175)"/>
<path d="M0 0 C3.68753843 1.84376922 5.50068924 3.2649848 8.328125 6.1328125 C9.12734375 6.93847656 9.9265625 7.74414062 10.75 8.57421875 C11.575 9.41597656 12.4 10.25773437 13.25 11.125 C14.51070312 12.39923828 14.51070312 12.39923828 15.796875 13.69921875 C17.86911558 15.79500752 19.93515867 17.89692087 22 20 C22.33 13.73 22.66 7.46 23 1 C24.65 1 26.3 1 28 1 C28 11.89 28 22.78 28 34 C20.125 27.25 20.125 27.25 17.25390625 24.3515625 C16.64482422 23.73925781 16.03574219 23.12695312 15.40820312 22.49609375 C14.79912109 21.87863281 14.19003906 21.26117188 13.5625 20.625 C12.60827148 19.66400391 12.60827148 19.66400391 11.63476562 18.68359375 C10.08751204 17.12470668 8.54341836 15.56268433 7 14 C6.67 19.94 6.34 25.88 6 32 C4.02 32 2.04 32 0 32 C0 21.44 0 10.88 0 0 Z " fill="#000000" transform="translate(146,373)"/>
<path d="M0 0 C3.30010963 1.65005482 4.56076693 2.31895825 6.83984375 4.86328125 C7.34580078 5.42080078 7.85175781 5.97832031 8.37304688 6.55273438 C8.88931641 7.13345703 9.40558594 7.71417969 9.9375 8.3125 C10.96644006 9.45533531 11.99637654 10.59727433 13.02734375 11.73828125 C13.47843506 12.24399658 13.92952637 12.74971191 14.39428711 13.27075195 C16.53307895 15.57409125 18.77741114 17.77741114 21 20 C21.33 13.73 21.66 7.46 22 1 C23.98 1 25.96 1 28 1 C28 11.56 28 22.12 28 33 C25 33 25 33 23.59765625 31.671875 C23.09105469 31.03765625 22.58445312 30.4034375 22.0625 29.75 C17.08271392 23.78284254 11.52427871 18.46220816 6 13 C5.67 19.27 5.34 25.54 5 32 C3.35 32 1.7 32 0 32 C0 21.44 0 10.88 0 0 Z " fill="#000000" transform="translate(334,373)"/>
<path d="M0 0 C4.881441 2.26638332 7.70028068 5.13520912 10 10 C10.77379561 15.29813119 10.67768515 19.56643525 8.375 24.4375 C4.88949319 28.1981784 2.41498657 30.67490565 -2.84375 31.3828125 C-7.64190023 31.56096164 -11.10942866 31.41347955 -15.5 29.375 C-19.84877438 25.24366434 -22.22321822 22.14247303 -22.5 16.0625 C-22.21155485 9.66863252 -20.11462539 6.06175976 -15.5 1.5625 C-10.32575261 -0.74743187 -5.57666708 -0.75070518 0 0 Z M-16 10 C-17.42441503 13.9691565 -17.45226751 16.92884011 -15.8125 20.8125 C-12.64448456 24.63596691 -11.20643515 25.84433095 -6.125 26.5 C-1.35760416 26.33960164 0.73679498 24.34279539 4 21 C5.57455739 17.85088521 5.34799118 15.47991184 5 12 C3.22719439 9.02327416 1.14391985 6.57195993 -2 5 C-8.41321874 4.35867813 -11.58047576 4.82592284 -16 10 Z " fill="#000000" transform="translate(129,374)"/>
<path d="M0 0 C4.95 0 9.9 0 15 0 C21 6 21 6 21 12 C19.625 15.3125 19.625 15.3125 18 18 C17.67 18.66 17.34 19.32 17 20 C17.433125 20.62648438 17.86625 21.25296875 18.3125 21.8984375 C18.869375 22.71570313 19.42625 23.53296875 20 24.375 C20.556875 25.18710937 21.11375 25.99921875 21.6875 26.8359375 C23 29 23 29 23 31 C20.2265625 31.30859375 20.2265625 31.30859375 17 31 C15.0234375 28.84765625 15.0234375 28.84765625 13.375 26.0625 C11.78981937 23.30898504 11.78981937 23.30898504 10 21 C8.68 20.67 7.36 20.34 6 20 C6 23.63 6 27.26 6 31 C4.02 31 2.04 31 0 31 C0 20.77 0 10.54 0 0 Z M6 4 C6 7.96 6 11.92 6 16 C11.01535052 15.67039784 11.01535052 15.67039784 15 13 C15.58345476 10.04253508 15.58345476 10.04253508 15 7 C11.75566237 4.29638531 10.29107948 4 6 4 Z " fill="#000000" transform="translate(243,374)"/>
<path d="M0 0 C0.99 0.66 1.98 1.32 3 2 C2.67 3.32 2.34 4.64 2 6 C1.11957031 5.95359375 0.23914063 5.9071875 -0.66796875 5.859375 C-2.41013672 5.80523437 -2.41013672 5.80523437 -4.1875 5.75 C-5.33605469 5.70359375 -6.48460937 5.6571875 -7.66796875 5.609375 C-11.67604991 6.07925556 -13.23073132 7.10922776 -16 10 C-17.09673607 12.65220309 -17.204207 15.14677439 -17 18 C-15.42569236 21.62090756 -14.31117074 22.79255284 -11 25 C-8.71351152 25.24107326 -8.71351152 25.24107326 -6.3125 25.125 C-5.50425781 25.10695313 -4.69601562 25.08890625 -3.86328125 25.0703125 C-3.24839844 25.04710937 -2.63351562 25.02390625 -2 25 C-1.67 23.02 -1.34 21.04 -1 19 C-2.98 19 -4.96 19 -7 19 C-7 17.68 -7 16.36 -7 15 C-3.37 15 0.26 15 4 15 C4 19.62 4 24.24 4 29 C-1.64144632 31.82072316 -6.78606302 31.63375974 -13 31 C-17.04607374 29.52455206 -19.76790946 26.64183193 -22 23 C-23.53377179 18.39868463 -23.90474832 13.65220508 -22.31640625 8.99609375 C-17.38137943 -0.48489138 -9.77663971 -1.12255142 0 0 Z " fill="#000000" transform="translate(293,374)"/>
<path d="M0 0 C6.93 0 13.86 0 21 0 C21 1.32 21 2.64 21 4 C15.72 4 10.44 4 5 4 C5 6.97 5 9.94 5 13 C9.62 13 14.24 13 19 13 C19 14.32 19 15.64 19 17 C14.38 17 9.76 17 5 17 C5 20.3 5 23.6 5 27 C10.61 27 16.22 27 22 27 C22 28.32 22 29.64 22 31 C14.74 31 7.48 31 0 31 C0 20.77 0 10.54 0 0 Z " fill="#000000" transform="translate(401,374)"/>
<path d="M0 0 C6.93 0 13.86 0 21 0 C21 1.32 21 2.64 21 4 C15.72 4 10.44 4 5 4 C5 6.97 5 9.94 5 13 C9.62 13 14.24 13 19 13 C19 14.32 19 15.64 19 17 C14.38 17 9.76 17 5 17 C5 20.3 5 23.6 5 27 C10.61 27 16.22 27 22 27 C22 28.32 22 29.64 22 31 C14.74 31 7.48 31 0 31 C0 20.77 0 10.54 0 0 Z " fill="#000000" transform="translate(305,374)"/>
<path d="M0 0 C6.93 0 13.86 0 21 0 C21 1.32 21 2.64 21 4 C15.72 4 10.44 4 5 4 C5 6.97 5 9.94 5 13 C9.62 13 14.24 13 19 13 C19 14.32 19 15.64 19 17 C14.38 17 9.76 17 5 17 C5 20.3 5 23.6 5 27 C10.61 27 16.22 27 22 27 C22 28.32 22 29.64 22 31 C14.74 31 7.48 31 0 31 C0 20.77 0 10.54 0 0 Z " fill="#000000" transform="translate(215,374)"/>
<path d="M0 0 C1.03382812 0.00386719 2.06765625 0.00773437 3.1328125 0.01171875 C5.875 0.3125 5.875 0.3125 8.875 2.3125 C8.545 3.9625 8.215 5.6125 7.875 7.3125 C7.38 7.1475 6.885 6.9825 6.375 6.8125 C1.0471652 5.74693304 -2.5480887 5.29407812 -7.125 8.25 C-9.45679981 11.82056846 -9.87077495 13.9575206 -9.59765625 18.15234375 C-9.19293684 20.59107956 -9.19293684 20.59107956 -7.1875 23.375 C-3.09451755 25.96443788 0.15228347 25.93158269 4.875 25.3125 C5.865 24.9825 6.855 24.6525 7.875 24.3125 C8.535 25.9625 9.195 27.6125 9.875 29.3125 C4.86722007 32.30758369 -0.47199083 31.9035653 -6.125 31.3125 C-10.96032109 29.24021953 -13.39521367 26.30534717 -15.49609375 21.59375 C-17.04449361 15.977194 -15.96910194 10.97055738 -13.375 5.875 C-9.37211061 1.31615375 -6.04537675 -0.09848358 0 0 Z " fill="#000000" transform="translate(92.125,373.6875)"/>
<path d="M0 0 C1.53333984 0.00580078 1.53333984 0.00580078 3.09765625 0.01171875 C5.87882634 0.3062856 7.56364466 0.88363264 9.9375 2.3125 C9.2775 3.9625 8.6175 5.6125 7.9375 7.3125 C7.4425 7.1475 6.9475 6.9825 6.4375 6.8125 C2.90320834 6.10564167 -0.48174178 5.76104853 -4.0625 6.3125 C-6.49369623 8.18265094 -7.70319173 9.59388345 -9.0625 12.3125 C-9.43927003 17.30470285 -9.13646361 20.29270143 -6.0625 24.3125 C-3.70979407 25.48885297 -2.241748 25.44609359 0.375 25.4375 C1.15746094 25.44007813 1.93992187 25.44265625 2.74609375 25.4453125 C5.11645347 25.39632548 5.11645347 25.39632548 7.9375 24.3125 C8.5975 25.9625 9.2575 27.6125 9.9375 29.3125 C5.05374978 32.56833348 -0.35390335 31.88125317 -6.0625 31.3125 C-10.71319365 29.14752192 -12.77579464 26.82760945 -15.0625 22.3125 C-15.88356048 16.8831451 -15.9729628 11.20302664 -13.375 6.25 C-9.51692532 1.34920243 -6.19928896 -0.10188465 0 0 Z " fill="#000000" transform="translate(384.0625,373.6875)"/>
<path d="M0 0 C1.98 0 3.96 0 6 0 C6.20681396 0.54003662 6.41362793 1.08007324 6.62670898 1.63647461 C7.56088784 4.07121595 8.49913747 6.50436819 9.4375 8.9375 C9.76298828 9.78763672 10.08847656 10.63777344 10.42382812 11.51367188 C10.73642578 12.32255859 11.04902344 13.13144531 11.37109375 13.96484375 C11.65911865 14.7137085 11.94714355 15.46257324 12.24389648 16.23413086 C12.86639115 17.99029133 12.86639115 17.99029133 14 19 C14.20681396 18.45996338 14.41362793 17.91992676 14.62670898 17.36352539 C15.56088784 14.92878405 16.49913747 12.49563181 17.4375 10.0625 C17.76298828 9.21236328 18.08847656 8.36222656 18.42382812 7.48632812 C18.73642578 6.67744141 19.04902344 5.86855469 19.37109375 5.03515625 C19.65911865 4.2862915 19.94714355 3.53742676 20.24389648 2.76586914 C21 1 21 1 22 0 C23.99958364 -0.04080783 26.00045254 -0.04254356 28 0 C25.68004118 5.82799943 23.35130373 11.65240647 21.01318359 17.47314453 C20.14623154 19.63530208 19.28532982 21.7997383 18.42578125 23.96484375 C17.99652344 25.02832031 17.56726563 26.09179688 17.125 27.1875 C16.57199219 28.57001953 16.57199219 28.57001953 16.0078125 29.98046875 C15 32 15 32 13 33 C11.20694946 28.93810941 9.41580212 24.87538231 7.625 20.8125 C7.11710938 19.66201172 6.60921875 18.51152344 6.0859375 17.32617188 C5.59609375 16.21435547 5.10625 15.10253906 4.6015625 13.95703125 C4.15119629 12.93585205 3.70083008 11.91467285 3.23681641 10.86254883 C2.82866699 9.91790771 2.42051758 8.9732666 2 8 C1.61634277 7.11401123 1.23268555 6.22802246 0.83740234 5.31518555 C0 3 0 3 0 0 Z " fill="#000000" transform="translate(181,374)"/>
<path d="M0 0 C0.78375 0.04125 1.5675 0.0825 2.375 0.125 C2.375 4.125 2.375 8.125 2.375 12.125 C0.065 12.125 -2.245 12.125 -4.625 12.125 C-4.439375 11.2175 -4.25375 10.31 -4.0625 9.375 C-3.44087232 6.27214806 -3.44087232 6.27214806 -4.1875 3.875 C-4.331875 3.2975 -4.47625 2.72 -4.625 2.125 C-2.625 0.125 -2.625 0.125 0 0 Z " fill="#50494C" transform="translate(248.625,208.875)"/>
<path d="M0 0 C0.99 0 1.98 0 3 0 C3.66 1.65 4.32 3.3 5 5 C2.69 5 0.38 5 -2 5 C-1.125 1.125 -1.125 1.125 0 0 Z " fill="#678E38" transform="translate(246,216)"/>
</svg>
